<?xml version="1.0" encoding="iso-8859-1"?>
<!-- Generator: Adobe Illustrator 24.0.1, SVG Export Plug-In . SVG Version: 6.00 Build 0)  -->
<svg version="1.1" id="Layer_1" xmlns="http://www.w3.org/2000/svg" xmlns:xlink="http://www.w3.org/1999/xlink" width="76" height="84" x="0px" y="0px"
	 viewBox="0 0 70.211 52.578" style="enable-background:new 0 0 70.211 52.578; background-color:2C4559" xml:space="preserve">
<path style="fill:#FFFFFF;" d="M5.951,0.563H0v51.455h5.951c7,0,10.781-1.4,12.812-5.32c1.96-3.921,2.24-10.291,2.24-20.372
	s-0.28-16.522-2.24-20.442C16.732,1.963,12.951,0.563,5.951,0.563z M13.091,36.197c-0.07,2.45-0.35,4.271-0.7,5.46
	c-0.77,2.521-2.24,2.801-4.83,2.801V8.124c2.59,0,4.06,0.28,4.83,2.73c0.35,1.26,0.63,3.08,0.7,5.46
	c0.07,2.45,0.07,5.741,0.07,9.941S13.162,33.747,13.091,36.197z M44.451,5.603c0.771,1.61,1.19,3.501,1.26,5.53v7.071h-7.07v-7.071
	c0-1.399-0.35-2.38-1.12-3.22c-0.35-0.351-0.98-0.561-1.75-0.561c-1.33,0-1.96,0.98-2.31,1.891c-0.21,0.56-0.28,1.19-0.35,1.89
	v30.313c0.07,1.471,0.49,2.45,1.19,3.221c0.35,0.35,0.84,0.56,1.47,0.56c1.61,0,2.24-0.84,2.59-1.89c0.21-0.49,0.28-1.12,0.28-1.891
	v-7.07h7.07v7.07c-0.069,2.101-0.489,3.99-1.26,5.601c-0.63,1.4-1.61,2.73-3.011,3.78c-1.399,1.12-3.29,1.751-5.81,1.751
	s-4.48-0.631-5.88-1.751c-1.4-1.05-2.31-2.38-2.94-3.78c-0.77-1.61-1.19-3.5-1.26-5.601V11.134c0.07-2.029,0.49-3.92,1.26-5.53
	c0.63-1.4,1.54-2.8,2.94-3.851c1.4-1.05,3.36-1.75,5.88-1.75s4.411,0.7,5.81,1.75C42.841,2.804,43.821,4.203,44.451,5.603z
	 M67.971,31.576c1.33,2.591,2.24,5.251,2.24,8.051c0,3.431-0.56,6.651-2.17,9.031s-4.2,3.921-8.331,3.921
	c-4.83,0-7.561-1.82-9.101-4.621c-1.54-2.8-1.891-6.511-1.891-10.361l7.421-0.699c0,2.17,0.07,4.34,0.63,5.95
	c0.49,1.68,1.33,2.8,2.94,2.8c2.24,0,3.08-2.38,3.08-5.67c0-1.681-0.84-3.641-1.96-5.671c-0.63-0.98-1.26-2.03-1.96-3.08
	c-1.471-2.101-3.08-4.48-4.761-7.071c-1.68-2.59-2.94-5.25-3.71-7.98c-0.421-1.33-0.631-2.73-0.631-4.131
	c0-2.8,0.631-5.811,2.24-8.12c1.61-2.24,4.061-3.851,7.631-3.921c4.551-0.07,7.211,1.82,8.682,4.551c1.47,2.8,1.89,6.23,1.89,9.101
	l-7.421,0.7c0-1.68-0.069-3.57-0.56-5.04c-0.49-1.4-1.261-2.381-2.45-2.381c-1.961,0.07-2.591,2.101-2.591,5.11
	c0,1.751,0.771,3.57,1.891,5.531c1.12,1.96,2.59,3.99,4.061,6.16C64.891,26.326,66.641,28.986,67.971,31.576z"/>
</svg>
